<svg width="7" height="12" fill="none" xmlns="http://www.w3.org/2000/svg"><path fill-rule="evenodd" clip-rule="evenodd" d="M1 10.448l5-4.724L1 1v.859l4.09 3.865L1 9.589v.859z" fill="#A0522F"/><path d="M6 5.724l.172.182.192-.182-.192-.182L6 5.724zm-5 4.724H.75v.58l.422-.399L1 10.448zM1 1l.172-.182L.75.42V1H1zm0 .859H.75v.108l.078.074L1 1.859zm4.09 3.865l.173.182.192-.182-.192-.182-.172.182zM1 9.589l-.172-.182-.078.074v.108H1zm4.828-4.047l-5 4.724.344.363 5-4.723-.344-.364zm-5-4.36l5 4.724.344-.364-5-4.724-.344.364zm.422.677V1h-.5v.859h.5zm-.422.182L4.92 5.906l.344-.364-4.091-3.865-.344.364zM4.92 5.542L.83 9.407l.343.363 4.09-3.864-.343-.364zM1.25 10.448v-.86h-.5v.86h.5z" fill="#A0522F"/></svg>