<svg height="512" width="512" xmlns="http://www.w3.org/2000/svg" fill="#522A0A"><path d="M269.128 62.144C281.72 51.648 296 39.744 296 16h-16c0 16.256-9.792 24.408-21.128 33.856C246.28 60.352 232 72.256 232 96h16c0-16.256 9.792-24.408 21.128-33.856zM357.656 53.656C370.008 41.312 384 27.312 384 0h-16c0 20.688-10.04 30.72-21.656 42.344C333.992 54.688 320 68.688 320 96h16c0-20.688 10.04-30.72 21.656-42.344zM181.656 53.656C194.008 41.312 208 27.312 208 0h-16c0 20.688-10.04 30.72-21.656 42.344C157.992 54.688 144 68.688 144 96h16c0-20.688 10.04-30.72 21.656-42.344zM448 192h-48v-16c0-8.824-7.176-16-16-16h-.688c-3.28-18.84-17.952-34.136-37.288-37.76l-8.088-1.512c-59.688-11.184-120.184-11.184-179.872 0l-8.088 1.512c-19.336 3.624-34.008 18.92-37.288 37.76H112c-8.824 0-16 7.176-16 16v47.112c0 38.224 3.416 76.68 10.16 114.296l15.752-2.824A633.393 633.393 0 01112 223.112V176h128v56c0 13.232 10.768 24 24 24s24-10.768 24-24v-8c0-4.408 3.584-8 8-8s8 3.592 8 8v40c0 13.232 10.768 24 24 24s24-10.768 24-24v-24h-16v24c0 4.408-3.584 8-8 8s-8-3.592-8-8v-40c0-13.232-10.768-24-24-24s-24 10.768-24 24v8c0 4.408-3.584 8-8 8s-8-3.592-8-8v-56h80v48h16v-48h32v47.112c0 45.384-4.688 91.168-16.16 157.88l-12.48 35.112a70.38 70.38 0 01-3.344 7.896H352v.032C339.96 448.248 315.024 464 287.52 464h-52.136C252.448 453.912 264 434.704 264 412.704c0-22.968-13.008-43.84-32.792-53.336a39.034 39.034 0 00-3.448-8.688c-.712-1.288-1.536-2.472-2.512-3.832a.808.808 0 00-.104-.128c-18-24.888-63.208-24.28-105.312 1.456-42.12 25.736-65.032 66.704-53.32 95.288l.096.216c.04.128.088.248.136.368.44 1.104.896 2.192 1.48 3.264C72.16 454.536 78.28 460.192 86.16 464H32a8.006 8.006 0 00-7.76 9.944l4.968 19.88A23.974 23.974 0 0052.496 512h391.016a23.965 23.965 0 0023.28-18.176l4.968-19.88c.6-2.392.064-4.92-1.456-6.864S466.464 464 464 464H338.048a88.207 88.207 0 0023.216-24h39.672a39.947 39.947 0 0037.944-27.344l48.704-146.12c.272-.824.416-1.68.416-2.536v-32c0-22.056-17.944-40-40-40zm-318.936-32c3.008-11.08 12.136-19.832 23.864-22.032l8.088-1.512c57.72-10.824 116.248-10.824 173.968 0l8.088 1.512c11.736 2.2 20.856 10.952 23.864 22.032zm102.928 218.648c9.88 7.944 16.008 20.48 16.008 34.056 0 23.616-17.944 42.824-40 42.824-9.312 0-18.184-3.528-25.304-9.896 27.776-18.904 45.768-44.224 49.296-66.984zM216.176 365.4c.016.272.032.544.072.824.776 5.208.16 10.896-1.672 16.792-3.088 9.728-9.496 20.168-18.464 30l-.24.264c-.168.184-.336.36-.504.544-7.712 8.248-17.248 16.048-28.12 22.688l-.952.536c-.24.144-.472.296-.696.464-23.272 13.624-48.424 19.128-66.152 14.392-3.366-.898-6.304-2.132-8.854-3.681 14.176-1.488 27.462-6.262 38.31-13.376 9.6-6.297 15.667-11.976 19.096-16.124 5.03-6.082 8.847-13.113 11.456-17.766 2.668-4.76 5.189-9.256 10.454-15.414 2.126-2.488 6.552-7.665 13.201-12.767 4.134-3.172 13.341-9.208 31.322-12.977.807 1.769 1.375 3.641 1.743 5.601zm-47.6 88.8a56.712 56.712 0 0012.184 9.8h-34.92c7.56-2.48 15.2-5.76 22.736-9.8zm-40.408-92.384c18.704-11.432 38.6-17.312 54.784-17.312 5.729 0 10.99.736 15.568 2.227-13.711 5.065-23.776 11.786-27.52 14.659-7.979 6.123-11.193 10.279-13.48 12.955-6.288 7.355-9.227 13.805-12.02 18.787-2.469 4.404-4.602 8.207-8.712 13.178-2.854 3.453-8.815 10.013-16.659 15.158-13.8 9.05-29.239 10.795-40.3 10.555-3.427-20.822 16.847-50.95 48.339-70.207zM453.76 480l-2.488 9.936a8.001 8.001 0 01-7.768 6.064H52.496a8.008 8.008 0 01-7.768-6.064L42.24 480zm-54.224-232H432v14.776L394.12 384h-10.56c9.6-55.776 14.528-97.216 15.976-136zM472 262.704l-48.288 144.888A23.986 23.986 0 01400.936 424h-31.44c.328-.84.648-1.688.952-2.536L378.072 400H400a7.991 7.991 0 007.632-5.616l40-128c.24-.768.368-1.576.368-2.384v-24c0-4.416-3.576-8-8-8h-40v-24h48c13.232 0 24 10.768 24 24z"/></svg>