<svg height="512" viewBox="0 0 64 64" width="512" xmlns="http://www.w3.org/2000/svg" fill="#522A0A"><path d="M18 36h2v2h-2zM25 37h2v2h-2zM33 36h2v2h-2z"/><path d="M63 56h-5v2h4v1c0 .551-.448 1-1 1H3c-.552 0-1-.449-1-1v-1h54v-2H45.618l1-2H47a3.01 3.01 0 002.399-1.2l2.4-3.2a1 1 0 00.2-.6v-2a1 1 0 00-1-1h-1.033C49.451 38.193 42.935 32 35 32h-7v-3h3c1.654 0 3-1.346 3-3v-2a1 1 0 00-1-1h-6a1 1 0 00-1 1v8h-7c-3.374 0-6.491 1.12-9 3.007V34C10 19.664 21.663 8 36 8c14.001 0 25.453 11.125 25.981 25H47v2h16a1 1 0 001-1C64 19.865 53.472 8.144 39.846 6.264l-.391-1.567A3.555 3.555 0 0035.999 2a3.551 3.551 0 00-3.453 2.696l-.392 1.567C18.528 8.144 8 19.865 8 34v2.812A14.949 14.949 0 004.033 46H3a1 1 0 00-1 1v2a1 1 0 00.2.6l2.4 3.2c.563.751 1.46 1.2 2.4 1.2h.382l1 2H1a1 1 0 00-1 1v2c0 1.654 1.346 3 3 3h58c1.654 0 3-1.346 3-3v-2a1 1 0 00-1-1zM32 25v1c0 .551-.448 1-1 1h-3v-2zm2.281-19l.205-.819A1.557 1.557 0 0136.001 4c.718 0 1.34.486 1.514 1.182l.204.818zM19 34h16c6.832 0 12.449 5.297 12.962 12H45v-3c0-1.654-1.346-3-3-3H30c-1.654 0-3 1.346-3 3v3h-3.612l.73-2.187a2.87 2.87 0 00-.399-2.61A2.869 2.869 0 0021.367 40c-.763 0-1.472.298-1.999.8a2.862 2.862 0 00-2.001-.8c-.763 0-1.472.298-1.999.8a2.862 2.862 0 00-2.001-.8 2.894 2.894 0 00-2.748 1.981L9.28 46H6.038c.513-6.703 6.13-12 12.962-12zm14 10v-2h2v2h2v-2h2v2h2v-2h1c.552 0 1 .449 1 1v3H29v-3c0-.551.448-1 1-1h1v2zm-18.775-.837l-.635 1.904-.311.933h-1.892l1.128-3.386c.217-.645 1.184-.793 1.58-.241a.886.886 0 01.13.79zm1.258 2.55l.634-1.9.02-.062.379-1.137c.216-.645 1.183-.793 1.58-.241a.892.892 0 01.13.79l-.635 1.904-.312.933h-1.892zm4 0l.634-1.9.02-.062.379-1.137c.216-.645 1.183-.793 1.58-.241a.888.888 0 01.124.808L21.279 46h-1.892zM6.2 51.6L4 48.667V48h46v.667l-2.201 2.934c-.187.25-.486.399-.799.399H7c-.313 0-.612-.149-.8-.4zm4.142 3.847L9.618 54h34.764l-.724 1.447a.995.995 0 01-.894.553H11.236a.995.995 0 01-.894-.553z"/><path d="M51.54 20.93l1.621-1.171A18.755 18.755 0 0038 12v2a16.75 16.75 0 0113.54 6.93zM34 12h2v2h-2z"/></svg>