<svg height="512" viewBox="0 0 64 64" width="512" xmlns="http://www.w3.org/2000/svg" fill="#522A0A"><path d="M46.611 61.208l-3.694-2.851-.907-6.213 4.98-36.008A.87.87 0 0047 16v-3a1 1 0 00-.461-.842l3.803-7.605A.994.994 0 0151.236 4H56V2h-4.764a2.984 2.984 0 00-2.683 1.658l-2.677 5.354A4.017 4.017 0 0044 6.537v-.57a5.045 5.045 0 00-.562-2.319c-.03-.058-.062-.115-.094-.172a4.987 4.987 0 00-2.892-2.294L36.692.043a.974.974 0 00-.419-.035L24.356 1.556A5.012 5.012 0 0020 6.514v.022A4.003 4.003 0 0018 10v2a1 1 0 00-1 1v3c0 .046.003.092.009.137l4.98 36.008-.921 6.313-3.667 2.742A.999.999 0 0017 62h-5v2h40v-2h-5c0-.31-.144-.603-.389-.792zM20 10c0-1.103.897-2 2-2h10V6h-9.955a3.012 3.012 0 012.569-2.461l11.702-1.52 3.555 1.077A2.982 2.982 0 0142 5.967L38 6v2h4c1.103 0 2 .897 2 2v2H26v2h19v1.931L44.714 18H19.286L19 15.931V14h5v-2h-4zm-.437 10h24.874l-4.428 32.012c-.013.094-.012.188.001.282L40.843 58H23.157l.833-5.707c.013-.093.014-.188.001-.282zm.107 42l2.675-2h19.427l2.591 2z"/><path d="M27 28c1.103 0 2-.897 2-2v-2c0-1.103-.897-2-2-2h-2c-1.103 0-2 .897-2 2v2c0 1.103.897 2 2 2zm-2-4h2l.001 2H25zM26 52v2c0 1.103.897 2 2 2h2c1.103 0 2-.897 2-2v-2c0-1.103-.897-2-2-2h-2c-1.103 0-2 .897-2 2zm4.001 2H28v-2h2zM36 41h2c1.103 0 2-.897 2-2v-2c0-1.103-.897-2-2-2h-2c-1.103 0-2 .897-2 2v2c0 1.103.897 2 2 2zm0-4h2l.001 2H36zM34 25h2v2h-2zM39 29h2v2h-2zM25 46h2v2h-2zM30 42h2v2h-2zM54 62h4v2h-4zM6 62h4v2H6z"/></svg>