<svg width="98" height="76" fill="none" xmlns="http://www.w3.org/2000/svg"><path d="M17.3 28.758c0 .906.337 1.789 1.009 2.648.906 1.125 2.117 1.696 3.632 1.711v-2.601c-.921 0-1.554-.407-1.898-1.22-.094-.218-.14-.398-.14-.538v-7.899c0-.422.195-.828.585-1.218.407-.36.89-.547 1.453-.563v-2.601c-1.765 0-3.093.75-3.984 2.25-.438.734-.656 1.445-.656 2.132v7.899zm5.837 4.36c1.234 0 2.304-.485 3.21-1.454.782-.86 1.172-1.836 1.172-2.93l-2.53-.609c0 .172-.009.281-.024.328 0 .328-.04.61-.117.844-.125.312-.328.57-.61.773-.281.203-.539.328-.773.375l-.328.07v2.602zm0-14.04l.61.188c.53.265.898.648 1.1 1.148.079.234.118.5.118.797v.352l2.555-.657c0-1.203-.5-2.273-1.5-3.21-.891-.813-1.852-1.22-2.883-1.22v2.602zm5.883 9.352v-7.711c0-.828.351-1.672 1.054-2.532.938-1.125 2.125-1.695 3.563-1.71v2.601c-.813.016-1.422.453-1.828 1.313-.125.28-.188.515-.188.703v7.336c0 .843.438 1.468 1.313 1.875.265.125.492.187.68.187v2.625c-.891 0-1.782-.32-2.673-.96-1.265-.938-1.906-2.18-1.921-3.727zm5.882 4.687v-2.625c.407 0 .828-.187 1.266-.562.469-.422.71-.922.727-1.5v-7.336c0-.469-.204-.922-.61-1.36-.39-.422-.851-.64-1.383-.656v-2.601c1.578 0 2.844.68 3.797 2.039.547.78.82 1.515.82 2.203v7.71c0 1.735-.773 3.063-2.32 3.985-.812.469-1.578.703-2.297.703zm6.47-.14V16.594h8.53v2.578h-5.906v4.36H47.7v2.624h-3.703v6.82h-2.625zm10.194 0V16.594h8.532v2.578H54.19v4.36h3.703v2.624h-3.703v6.82h-2.625zM61.762 33V16.594h8.531v2.578h-5.906v4.36h3.703v2.624h-3.703v4.242h5.906V33h-8.531zm10.406 0V16.594h8.531v2.578h-5.906v4.36h3.703v2.624h-3.703v4.242h5.906V33h-8.531zm-54.914 6.594L22.012 56h.89l.961-2.93-3.937-13.476h-2.672zm5.812 6.61l1.196 4.077h.234c.578-2 1.156-4.015 1.735-6.047L29.534 56h.89l.962-2.883-3.82-13.523h-2.649l-1.852 6.61zm7.665.023l1.195 4.054h.234l3.188-10.687h-2.672l-1.946 6.633zm5.765 5.203v-7.711c0-.828.352-1.672 1.055-2.532.937-1.124 2.125-1.695 3.562-1.71v2.601c-.812.016-1.422.453-1.828 1.313-.125.28-.187.515-.187.703v7.336c0 .843.437 1.468 1.312 1.875.266.125.492.187.68.187v2.625c-.89 0-1.781-.32-2.672-.96-1.266-.938-1.906-2.18-1.922-3.727zm5.883 4.687v-2.625c.406 0 .828-.187 1.266-.562.468-.422.71-.922.726-1.5v-7.336c0-.469-.203-.922-.61-1.36-.39-.422-.85-.64-1.382-.656v-2.601c1.578 0 2.844.68 3.797 2.039.547.78.82 1.515.82 2.203v7.71c0 1.735-.773 3.063-2.32 3.985-.813.469-1.578.703-2.297.703zM48.87 56V39.594h2.625V56h-2.625zm3.82-6.914v-2.344h1.313c1.36 0 2.11-.648 2.25-1.945.016-.14.023-.274.023-.399 0-1.312-.593-2.086-1.78-2.32a4.81 4.81 0 00-.68-.047H52.69v-2.437h1.43c2.078.047 3.477.82 4.195 2.32.297.625.446 1.344.446 2.156-.016 1.735-.547 2.992-1.594 3.774.813.468 1.328 1.304 1.547 2.508.031.203.054.39.07.562L59.184 56h-2.438l-.352-4.172c-.124-1.312-.476-2.14-1.054-2.484-.344-.172-.774-.258-1.29-.258h-1.359zM60.707 56V39.594h2.625v13.828h6.187V56h-8.812zm10.172 0V39.594h2.625V56h-2.625zm3.844 0v-2.602c1.796 0 2.71-.656 2.742-1.968V44.21c0-.938-.524-1.555-1.57-1.852-.36-.109-.75-.164-1.172-.164v-2.601c2 0 3.492.656 4.476 1.968a4.34 4.34 0 01.867 2.649v7.172c0 2.172-1.023 3.594-3.07 4.265a7.145 7.145 0 01-2.273.352z" fill="#000"/><path d="M47.818 1H1v36.005M47.818 75H97V37.005" stroke="#000" stroke-width="2"/></svg>