<svg width="70" height="46" fill="none" xmlns="http://www.w3.org/2000/svg"><path d="M69.953 8.096c-3.457 3.84-6.337 8.448-8.64 13.824-2.113 5.184-3.169 10.368-3.169 15.552 0 2.88.193 4.992.577 6.336l-21.6 2.016c-.577-2.88-.864-5.664-.864-8.352 0-7.488 1.824-14.4 5.471-20.736 3.84-6.336 8.64-11.616 14.4-15.84l13.825 7.2zm-36 0c-3.457 3.84-6.337 8.448-8.64 13.824-2.112 5.184-3.168 10.368-3.168 15.552 0 2.88.192 4.992.576 6.336l-21.6 2.016c-.576-2.88-.864-5.664-.864-8.352 0-7.488 1.823-14.4 5.472-20.736 3.84-6.336 8.64-11.616 14.4-15.84l13.823 7.2z" fill="#B78A64"/></svg>