<svg width="12" height="7" fill="none" xmlns="http://www.w3.org/2000/svg"><path fill-rule="evenodd" clip-rule="evenodd" d="M1 1l4.724 5 4.724-5h-.86L5.725 5.09 1.859 1H1z" fill="#767676"/><path d="M5.724 6l-.182.172.182.192.182-.192L5.724 6zM1 1V.75H.42l.398.422L1 1zm9.448 0l.181.172.399-.422h-.58V1zm-.86 0V.75h-.107l-.074.078.182.172zM5.725 5.09l-.182.173.182.192.182-.192-.182-.172zM1.859 1L2.04.828 1.967.75h-.108V1zm4.047 4.828l-4.724-5-.364.344 4.724 5 .364-.344zm4.36-5l-4.724 5 .364.344 4.723-5-.363-.344zm-.677.422h.859v-.5h-.86v.5zM9.407.828L5.542 4.92l.364.344L9.77 1.172 9.407.828zM5.906 4.92L2.04.83l-.364.343 3.865 4.09.364-.343zM1 1.25h.859v-.5H1v.5z" fill="#767676"/></svg>