<?xml version="1.0" encoding="utf-8"?><!DOCTYPE svg PUBLIC "-//W3C//DTD SVG 1.1//EN" "http://www.w3.org/Graphics/SVG/1.1/DTD/svg11.dtd"><svg viewBox="0 0 512 512" xmlns="http://www.w3.org/2000/svg" xmlns:xlink="http://www.w3.org/1999/xlink"><style>:root>svg{display:none}:root>svg:target{display:block}</style><svg fill="none" viewBox="0 0 132 131" id="about-bottom-right-angle" xmlns="http://www.w3.org/2000/svg"><path d="M131 0v130H0" stroke="#fff"/></svg><svg fill="none" viewBox="0 0 132 132" id="about-top-left-angle" xmlns="http://www.w3.org/2000/svg"><path d="M132 1H1v131" stroke="#fff"/></svg><svg fill="none" viewBox="0 0 15 8" id="arrow-down" xmlns="http://www.w3.org/2000/svg"><path fill-rule="evenodd" clip-rule="evenodd" d="M2 1l5.475 5.795L12.95 1h-.995l-4.48 4.742L2.995 1H2z" fill="#A0522F"/><path d="M7.475 6.795l-.363.344.363.384.364-.384-.364-.344zM2 1V.5H.84l.797.843L2 1zm10.95 0l.364.343L14.11.5h-1.16V1zm-.995 0V.5h-.216l-.148.157.364.343zm-4.48 4.742l-.363.343.363.385.364-.385-.364-.343zM2.995 1L3.36.657 3.21.5h-.216V1zM7.84 6.452L2.363.657l-.726.686L7.112 7.14l.727-.687zM12.587.657L7.112 6.452l.727.687 5.475-5.796-.727-.686zm-.632.843h.995v-1h-.995v1zM11.59.657l-4.48 4.741.728.687 4.48-4.742-.728-.686zM7.84 5.398L3.359.657l-.727.686 4.48 4.742.727-.687zM2 1.5h.995v-1H2v1z" fill="#A0522F"/></svg><svg fill="none" viewBox="0 0 22 44" id="arrow-slider-next" xmlns="http://www.w3.org/2000/svg"><path fill-rule="evenodd" clip-rule="evenodd" d="M1 42l20-20L1 2v3.636L17.364 22 1 38.364V42z" fill="#A0522F"/><path d="M21 22l.354.354.353-.354-.353-.354L21 22zM1 42H.5v1.207l.853-.853L1 42zM1 2l.353-.354L.5.793V2H1zm0 3.636H.5v.207l.146.147L1 5.636zM17.364 22l.353.354.354-.354-.354-.354-.353.354zM1 38.364l-.354-.354-.146.147v.207H1zm19.646-16.718l-20 20 .707.708 20-20-.707-.708zm-20-19.292l20 20 .708-.708-20-20-.708.708zM1.5 5.636V2h-1v3.636h1zm-.854.354L17.01 22.354l.707-.708L1.354 5.283l-.708.707zM17.01 21.646L.646 38.01l.707.707 16.364-16.363-.707-.708zM1.5 42v-3.636h-1V42h1z" fill="#A0522F"/></svg><svg fill="none" viewBox="0 0 22 44" id="arrow-slider-prev" xmlns="http://www.w3.org/2000/svg"><path fill-rule="evenodd" clip-rule="evenodd" d="M21 42L1 22 21 2v3.636L4.636 22 21 38.364V42z" fill="#A0522F"/><path d="M1 22l-.354.354L.293 22l.353-.354L1 22zm20 20h.5v1.207l-.854-.853L21 42zm0-40l-.354-.354.854-.853V2H21zm0 3.636h.5v.207l-.146.147L21 5.636zM4.636 22l-.353.354L3.929 22l.354-.354.353.354zM21 38.364l.354-.354.146.147v.207H21zM1.354 21.646l20 20-.707.708-20-20 .707-.708zm20-19.292l-20 20-.708-.708 20-20 .708.708zM20.5 5.636V2h1v3.636h-1zm.854.354L4.99 22.354l-.707-.708L20.647 5.283l.707.707zM4.99 21.646L21.354 38.01l-.707.707L4.282 22.354l.707-.708zM20.5 42v-3.636h1V42h-1z" fill="#A0522F"/></svg><svg fill="none" viewBox="0 0 368 201" id="bottom-right-angle" xmlns="http://www.w3.org/2000/svg"><path d="M367 0v200H0" stroke="#000"/></svg><svg viewBox="0 0 112.196 112.196" id="facebook" xmlns="http://www.w3.org/2000/svg"><circle cx="56.098" cy="56.098" r="56.098" fill="#404040"/><path d="M70.201 58.294h-10.01v36.672H45.025V58.294h-7.213V45.406h7.213v-8.34c0-5.964 2.833-15.303 15.301-15.303l11.234.047v12.51h-8.151c-1.337 0-3.217.668-3.217 3.513v7.585h11.334l-1.325 12.876z" fill="#fff"/></svg><svg viewBox="0 0 100.354 100.352" fill="#9E9E9E" id="footer-mail" xmlns="http://www.w3.org/2000/svg"><path d="M93.09 76.224c.047-.145.079-.298.079-.459V22.638c0-.162-.032-.316-.08-.462-.007-.02-.011-.04-.019-.06a1.492 1.492 0 00-.276-.46c-.008-.009-.009-.02-.017-.029-.005-.005-.011-.007-.016-.012a1.504 1.504 0 00-.442-.323c-.013-.006-.023-.014-.036-.02a1.48 1.48 0 00-.511-.123c-.018-.001-.035-.005-.053-.005-.017-.001-.032-.005-.049-.005H8.465c-.017 0-.033.004-.05.005l-.048.005a1.497 1.497 0 00-.518.125c-.01.004-.018.011-.028.015-.17.081-.321.191-.448.327-.005.005-.011.006-.016.011-.008.008-.009.019-.017.028a1.5 1.5 0 00-.277.461c-.008.02-.012.04-.019.061-.048.146-.08.3-.08.462v53.128c0 .164.033.32.082.468l.018.059a1.5 1.5 0 00.28.462c.007.008.009.018.016.026.006.007.014.011.021.018.049.051.103.096.159.14.025.019.047.042.073.06.066.046.137.083.21.117.018.008.034.021.052.028.181.077.38.121.589.121h83.204c.209 0 .408-.043.589-.121.028-.012.054-.03.081-.044.062-.031.124-.063.181-.102.03-.021.057-.048.086-.071.051-.041.101-.082.145-.129l.025-.022c.008-.009.01-.021.018-.03a1.5 1.5 0 00.275-.458c.01-.022.015-.043.022-.065zM9.965 26.04l25.247 23.061L9.965 72.346V26.04zm51.746 21.931c-.104.068-.214.125-.301.221-.033.036-.044.083-.073.121l-11.27 10.294-37.736-34.469h75.472L61.711 47.971zm-24.275 3.161l11.619 10.613a1.496 1.496 0 002.023 0l11.475-10.481 25.243 23.002H12.309l25.127-23.134zm27.342-1.9L90.169 26.04v46.33L64.778 49.232z"/></svg><svg viewBox="0 0 48 48" id="footer_tell" xmlns="http://www.w3.org/2000/svg"><defs><path fill="#9E9E9E" id="ia" d="M46.557 37.182l-9-6.014c-1.498-1.002-2.941-.967-4.189.059-3.504 2.873-5.582 2.049-5.92 1.879-1.982-.992-3.854-1.928-6.741-4.813-3.584-3.586-4.878-5.875-5.812-7.74-.373-.746-.803-3.254 1.65-5.869 1.147-1.221 1.253-2.721.299-4.221-.735-1.156-.735-1.156-1.313-2.006-.57-.84-1.709-2.518-4.713-7.014C10.169.473 9.247 0 8 0 6.586 0 5.87.717 5.293 1.293l-3 3C.169 6.416 0 7.633 0 9c0 1.721 2.485 12.939 14.292 24.705C26.061 45.514 37.268 48 38.988 48h.066c1.355-.02 2.559-.199 4.652-2.293l3-3C47.283 42.131 48 41.414 48 40c0-1.248-.473-2.17-1.443-2.818zm-1.264 4.111l-3 3c-1.684 1.684-2.416 1.695-3.305 1.707-.123-.004-10.891-1.273-23.282-13.709C3.415 20.043 2.002 9.096 2 9c0-.887 0-1.586 1.706-3.293l3-3C7.233 2.182 7.443 2 8 2c.653 0 .927.213 1.156.555a976.365 976.365 0 004.721 7.025c.563.828.563.828 1.28 1.957.568.893.302 1.383-.07 1.779-3.121 3.324-2.66 6.771-1.981 8.131 1.003 2.006 2.39 4.463 6.187 8.26 3.115 3.115 5.223 4.168 7.26 5.188.561.279 1.293.434 2.063.434 1.326 0 3.445-.443 6.02-2.555.365-.301.625-.336.789-.336.287 0 .631.133 1.021.395l9 6.012c.341.227.554.501.554 1.155 0 .557-.182.768-.707 1.293z"/></defs><use xlink:href="#ia"/></svg><svg viewBox="0 0 291.319 291.319" id="inst" xmlns="http://www.w3.org/2000/svg"><path d="M145.659 0c80.44 0 145.66 65.219 145.66 145.66S226.1 291.319 145.66 291.319 0 226.1 0 145.66 65.21 0 145.659 0z" fill="#404040"/><path d="M195.93 63.708H95.38c-17.47 0-31.672 14.211-31.672 31.672v100.56c0 17.47 14.211 31.672 31.672 31.672h100.56c17.47 0 31.672-14.211 31.672-31.672V95.38c-.001-17.461-14.212-31.672-31.682-31.672zm9.978 18.326l3.587-.009v27.202l-27.402.091-.091-27.202 23.906-.082zm-60.248 36.205c22.732 0 27.42 21.339 27.42 27.429 0 15.103-12.308 27.411-27.42 27.411-15.121 0-27.42-12.308-27.42-27.411-.01-6.09 4.688-27.429 27.42-27.429zm63.99 75.716c0 8.658-7.037 15.704-15.713 15.704H97.073c-8.667 0-15.713-7.037-15.713-15.704v-66.539h22.759c-2.112 5.198-3.305 12.299-3.305 18.253 0 24.708 20.101 44.818 44.818 44.818s44.808-20.11 44.808-44.818c0-5.954-1.193-13.055-3.296-18.253h22.486v66.539h.02z" fill="#fff"/></svg><svg viewBox="0 0 100.354 100.352" id="mail" xmlns="http://www.w3.org/2000/svg"><path d="M93.09 76.224c.047-.145.079-.298.079-.459V22.638c0-.162-.032-.316-.08-.462-.007-.02-.011-.04-.019-.06a1.492 1.492 0 00-.276-.46c-.008-.009-.009-.02-.017-.029-.005-.005-.011-.007-.016-.012a1.504 1.504 0 00-.442-.323c-.013-.006-.023-.014-.036-.02a1.48 1.48 0 00-.511-.123c-.018-.001-.035-.005-.053-.005-.017-.001-.032-.005-.049-.005H8.465c-.017 0-.033.004-.05.005l-.048.005a1.497 1.497 0 00-.518.125c-.01.004-.018.011-.028.015-.17.081-.321.191-.448.327-.005.005-.011.006-.016.011-.008.008-.009.019-.017.028a1.5 1.5 0 00-.277.461c-.008.02-.012.04-.019.061-.048.146-.08.3-.08.462v53.128c0 .164.033.32.082.468l.018.059a1.5 1.5 0 00.28.462c.007.008.009.018.016.026.006.007.014.011.021.018.049.051.103.096.159.14.025.019.047.042.073.06.066.046.137.083.21.117.018.008.034.021.052.028.181.077.38.121.589.121h83.204c.209 0 .408-.043.589-.121.028-.012.054-.03.081-.044.062-.031.124-.063.181-.102.03-.021.057-.048.086-.071.051-.041.101-.082.145-.129l.025-.022c.008-.009.01-.021.018-.03a1.5 1.5 0 00.275-.458c.01-.022.015-.043.022-.065zM9.965 26.04l25.247 23.061L9.965 72.346V26.04zm51.746 21.931c-.104.068-.214.125-.301.221-.033.036-.044.083-.073.121l-11.27 10.294-37.736-34.469h75.472L61.711 47.971zm-24.275 3.161l11.619 10.613a1.496 1.496 0 002.023 0l11.475-10.481 25.243 23.002H12.309l25.127-23.134zm27.342-1.9L90.169 26.04v46.33L64.778 49.232z"/></svg><svg fill="none" viewBox="0 0 10 19" id="menu_arrow" xmlns="http://www.w3.org/2000/svg"><path fill-rule="evenodd" clip-rule="evenodd" d="M0 18.693l9.893-9.346L0 0v1.7l8.095 7.647L0 16.994v1.7z" fill="#fff"/></svg><svg fill="none" viewBox="0 0 22 28" id="search" xmlns="http://www.w3.org/2000/svg"><path d="M1 27l9-12" stroke="#000" stroke-width="2"/><circle cx="13.5" cy="8.5" r="7.5" stroke="#000" stroke-width="2"/></svg><svg viewBox="0 0 48 48" id="tell" xmlns="http://www.w3.org/2000/svg"><defs><path fill="#000" id="na" d="M46.557 37.182l-9-6.014c-1.498-1.002-2.941-.967-4.189.059-3.504 2.873-5.582 2.049-5.92 1.879-1.982-.992-3.854-1.928-6.741-4.813-3.584-3.586-4.878-5.875-5.812-7.74-.373-.746-.803-3.254 1.65-5.869 1.147-1.221 1.253-2.721.299-4.221-.735-1.156-.735-1.156-1.313-2.006-.57-.84-1.709-2.518-4.713-7.014C10.169.473 9.247 0 8 0 6.586 0 5.87.717 5.293 1.293l-3 3C.169 6.416 0 7.633 0 9c0 1.721 2.485 12.939 14.292 24.705C26.061 45.514 37.268 48 38.988 48h.066c1.355-.02 2.559-.199 4.652-2.293l3-3C47.283 42.131 48 41.414 48 40c0-1.248-.473-2.17-1.443-2.818zm-1.264 4.111l-3 3c-1.684 1.684-2.416 1.695-3.305 1.707-.123-.004-10.891-1.273-23.282-13.709C3.415 20.043 2.002 9.096 2 9c0-.887 0-1.586 1.706-3.293l3-3C7.233 2.182 7.443 2 8 2c.653 0 .927.213 1.156.555a976.365 976.365 0 004.721 7.025c.563.828.563.828 1.28 1.957.568.893.302 1.383-.07 1.779-3.121 3.324-2.66 6.771-1.981 8.131 1.003 2.006 2.39 4.463 6.187 8.26 3.115 3.115 5.223 4.168 7.26 5.188.561.279 1.293.434 2.063.434 1.326 0 3.445-.443 6.02-2.555.365-.301.625-.336.789-.336.287 0 .631.133 1.021.395l9 6.012c.341.227.554.501.554 1.155 0 .557-.182.768-.707 1.293z"/></defs><use xlink:href="#na"/></svg><svg fill="none" viewBox="0 0 341 201" id="top-left-angle" xmlns="http://www.w3.org/2000/svg"><path d="M341 1H1v200" stroke="#000"/></svg><svg data-name="Layer 1" viewBox="0 0 512 512" id="twitter" xmlns="http://www.w3.org/2000/svg"><circle cx="256" cy="256" r="256" fill="#404040"/><path data-name="Twitter" d="M399.36 167.08a117.51 117.51 0 01-33.78 9.26 59 59 0 0025.86-32.54 117.78 117.78 0 01-37.35 14.27 58.88 58.88 0 00-100.24 53.65 167 167 0 01-121.25-61.46 58.89 58.89 0 0018.2 78.54 58.57 58.57 0 01-26.64-7.36v.74a58.86 58.86 0 0047.19 57.68 59 59 0 01-26.57 1 58.89 58.89 0 0055 40.85 118 118 0 01-73.06 25.18 119.64 119.64 0 01-14-.82 166.48 166.48 0 0090.17 26.43c108.2 0 167.37-89.63 167.37-167.37q0-3.83-.17-7.61a119.46 119.46 0 0029.27-30.44z" fill="#fff"/></svg></svg>